<?xml version="1.0" encoding="UTF-8"?>
<svg xmlns="http://www.w3.org/2000/svg" xmlns:xlink="http://www.w3.org/1999/xlink" viewBox="0 0 96 96" width="96px" height="96px">
<g id="surface41057">
<path style=" stroke:none;fill-rule:nonzero;fill:rgb(0%,0%,0%);fill-opacity:1;" d="M 48 9.601562 C 26.792969 9.601562 9.601562 26.792969 9.601562 48 C 9.601562 65.992188 21.992188 81.050781 38.695312 85.214844 C 38.515625 84.699219 38.398438 84.097656 38.398438 83.351562 L 38.398438 76.789062 C 36.839844 76.789062 34.230469 76.789062 33.574219 76.789062 C 30.945312 76.789062 28.609375 75.65625 27.476562 73.558594 C 26.222656 71.226562 26.003906 67.65625 22.886719 65.476562 C 21.960938 64.75 22.664062 63.921875 23.730469 64.03125 C 25.699219 64.589844 27.332031 65.9375 28.867188 67.941406 C 30.398438 69.949219 31.117188 70.402344 33.972656 70.402344 C 35.359375 70.402344 37.433594 70.324219 39.386719 70.015625 C 40.433594 67.351562 42.25 64.894531 44.46875 63.738281 C 31.679688 62.421875 25.578125 56.0625 25.578125 47.425781 C 25.578125 43.707031 27.160156 40.109375 29.851562 37.078125 C 28.96875 34.070312 27.859375 27.9375 30.191406 25.601562 C 35.945312 25.601562 39.425781 29.332031 40.257812 30.339844 C 43.125 29.355469 46.273438 28.800781 49.585938 28.800781 C 52.898438 28.800781 56.0625 29.355469 58.933594 30.34375 C 59.761719 29.34375 63.242188 25.601562 69.007812 25.601562 C 71.351562 27.9375 70.226562 34.097656 69.335938 37.101562 C 72.007812 40.125 73.585938 43.710938 73.585938 47.425781 C 73.585938 56.054688 67.492188 62.414062 54.722656 63.734375 C 58.238281 65.566406 60.800781 70.71875 60.800781 74.601562 L 60.800781 83.351562 C 60.800781 83.683594 60.726562 83.921875 60.6875 84.207031 C 75.652344 78.964844 86.398438 64.753906 86.398438 48 C 86.398438 26.792969 69.207031 9.601562 48 9.601562 Z M 48 9.601562 "/>
</g>
</svg>
